# xmcd CD database file
#
# Track frame offsets:
#	150
#	21207
#	41910
#	59865
#	71840
#	85760
#	98035
#	111367
#	126507
#	141710
#	158390
#	168240
#	184367
#	200615
#	214352
#	226807
#	240857
#	254310
#	270247
#	288575
#	299935
#	313967
#	327845
#
# Disc length: 4559 seconds
#
# Revision: 0
# Processed by: cddbd v1.5.2PL0 Copyright (c) Steve Scherf et al.
# Submitted via: CDex 1.70beta2
#
DISCID=7011cd17
DTITLE=Various Artist - Step In Line
DYEAR=2000
DGENRE=Country
TTITLE0=Groovegrass 101 - Walkin' After Midnight
TTITLE1=John Michael Montgomery - Life's A Dance
TTITLE2=Lila McCann - Down Came A Blackbird
TTITLE3=Joni Harms - Two Steppin' Texas Blue
TTITLE4=Ray Kennedy - No Way Jose
TTITLE5=Curtis Day - The Cowboy Stomp
TTITLE6=Dwight Yoakam - Pocket Of A Clown
TTITLE7=Nitty Gritty Dirt Band - Fishin' In The Dark
TTITLE8=Forester Sisters - Men
TTITLE9=Confederate Railroad - Bill's Laundromat, Bar And Grill
TTITLE10=Matt King - I Wrote The Book
TTITLE11=Neal McCoy - The Shake
TTITLE12=Chad Brock - Unbreak My Heart
TTITLE13=Chris Cummings - Almost Always
TTITLE14=Rodney Crowell and Johnny Cash - I Walk The Line Revisited
TTITLE15=Little Texas - Stop On A Dime
TTITLE16=Claudia Church - Just As Long As You Love Me
TTITLE17=Tracy Lawrence - How A Cowgirl Says Goodbye
TTITLE18=Anita Cochran - One Of Those Days
TTITLE19=Dan Seals - All Fired Up
TTITLE20=Karen Staley - Fearless
TTITLE21=David Ball - Don't Think Twice
TTITLE22=Connie Smith - How Long
EXTD=YEAR: 2000
EXTT0=
EXTT1=
EXTT2=
EXTT3=
EXTT4=
EXTT5=
EXTT6=
EXTT7=
EXTT8=
EXTT9=
EXTT10=
EXTT11=
EXTT12=
EXTT13=
EXTT14=
EXTT15=
EXTT16=
EXTT17=
EXTT18=
EXTT19=
EXTT20=
EXTT21=
EXTT22=
PLAYORDER=
